<svg xmlns="http://www.w3.org/2000/svg" width="34" height="34" viewBox="0 0 34 34">
  <title>LinkedIn</title>
  <defs>
    <linearGradient id="grad1" x1="0%" y1="0%" x2="100%" y2="0%" gradientTransform="rotate(45)">
      <stop offset="0%" style="stop-color:#03cffc;stop-opacity:1" />
      <stop offset="25%" style="stop-color:#80e8ff;stop-opacity:1" />
      <stop offset="50%" style="stop-color:#03cffc;stop-opacity:1" />
      <stop offset="75%" style="stop-color:#80e8ff;stop-opacity:1" />
      <stop offset="100%" style="stop-color:#03cffc;stop-opacity:1" />
    </linearGradient>
  </defs>
  <g>
    <path
      d="M34,2.5v29A2.5,2.5,0,0,1,31.5,34H2.5A2.5,2.5,0,0,1,0,31.5V2.5A2.5,2.5,0,0,1,2.5,0h29A2.5,2.5,0,0,1,34,2.5ZM10,13H5V29h5Zm.45-5.5A2.88,2.88,0,0,0,7.59,4.6H7.5a2.9,2.9,0,0,0,0,5.8h0a2.88,2.88,0,0,0,2.95-2.81ZM29,19.28c0-4.81-3.06-6.68-6.1-6.68a5.7,5.7,0,0,0-5.06,2.58H17.7V13H13V29h5V20.49a3.32,3.32,0,0,1,3-3.58h.19c1.59,0,2.77,1,2.77,3.52V29h5Z"
      fill="url(#grad1)"
    ></path>
  </g>
</svg>
